<svg id="Layer_1" data-name="Layer 1" xmlns="http://www.w3.org/2000/svg" viewBox="0 0 512 512"><defs><style>.cls-1{fill:#c00;}</style></defs><title>icons-collection</title><polygon class="cls-1" points="260.92 67.58 239.41 33.79 217.81 0 196.4 33.79 175.92 67.58 217.81 67.58 260.92 67.58"/><rect class="cls-1" x="18.43" y="157.7" width="112.64" height="58.37"/><polygon class="cls-1" points="170.29 90.11 267.57 90.11 267.57 150.53 279.76 150.53 279.76 90.11 279.76 76.8 156.88 76.8 156.88 77.82 156.88 90.11 156.88 216.06 170.29 216.06 170.29 90.11"/><rect class="cls-1" x="322.56" y="264.19" width="38.91" height="38.91"/><rect class="cls-1" x="375.81" y="264.19" width="38.91" height="38.91"/><rect class="cls-1" x="322.56" y="320.51" width="38.91" height="38.91"/><rect class="cls-1" x="375.81" y="320.51" width="38.91" height="38.91"/><rect class="cls-1" x="322.56" y="376.83" width="38.91" height="38.91"/><rect class="cls-1" x="375.81" y="376.83" width="38.91" height="38.91"/><rect class="cls-1" x="322.56" y="433.15" width="38.91" height="38.91"/><rect class="cls-1" x="375.81" y="433.15" width="38.91" height="38.91"/><rect class="cls-1" x="45.06" y="264.19" width="38.91" height="38.91"/><rect class="cls-1" x="98.3" y="264.19" width="38.91" height="38.91"/><rect class="cls-1" x="151.55" y="264.19" width="38.91" height="38.91"/><rect class="cls-1" x="45.06" y="320.51" width="38.91" height="38.91"/><rect class="cls-1" x="98.3" y="320.51" width="38.91" height="38.91"/><rect class="cls-1" x="151.55" y="320.51" width="38.91" height="38.91"/><rect class="cls-1" x="45.06" y="376.83" width="38.91" height="38.91"/><rect class="cls-1" x="98.3" y="376.83" width="38.91" height="38.91"/><rect class="cls-1" x="151.55" y="376.83" width="38.91" height="38.91"/><rect class="cls-1" x="45.06" y="433.15" width="38.91" height="38.91"/><rect class="cls-1" x="98.3" y="433.15" width="38.91" height="38.91"/><rect class="cls-1" x="151.55" y="433.15" width="38.91" height="38.91"/><path class="cls-1" d="M496.64,495.62V159.74H413.7V104.45H400.38v55.29H383V217.8h67.58V494.28h-9.22V227.33H297V494.59H284.67V218.11H358.4V159.74H242.69V495.62H219.14V225.28H17.41V494.59H0V512H512V495.62Zm-293.89-1h-169V240.64h169Zm224.26,1H309.25V243.71H427Z"/></svg>