<svg id="Layer_1" data-name="Layer 1" xmlns="http://www.w3.org/2000/svg" viewBox="0 0 512 512"><defs><style>.cls-1{fill:#c00;}</style></defs><title>icons-collection</title><path class="cls-1" d="M455.3,125l-56.64,58.15,7,24.92,16.85-16.84a.48.48,0,0,1,.67,0l34.18,34.14a.47.47,0,0,1,0,.66l-36.43,36.44,9.5,34,15.08-15.13a.5.5,0,0,1,.68,0l34.09,34.05a.5.5,0,0,1,0,.68l-34.55,34.74,32.76,116.77-17.3,17.25-122.48-188L308.15,266.3C278,295.7,177.53,377,177.53,377l34.93,112.21L189.67,512l-59.56-98.58c-23.26,18-64.42,32.89-64.42,32.89s14.83-41.25,32.85-64.42L0,322.31l22.8-22.8,112.17,35s81.32-100.41,110.69-130.61l-30.48-30.49L27.18,50.8l17.3-17.3L161.23,66.3l34.64-34.64a.48.48,0,0,1,.67,0l34.08,34.11a.48.48,0,0,1,0,.67l-15,15.12,34,9.54L286,54.67a.48.48,0,0,1,.67,0l17.86,17.81L320.85,88.8a.48.48,0,0,1,0,.67l-9.3,9.3L304,106.35l24.86,7L387,56.67s23.79-24.59,52.59-40.85C465,1.5,494.83-5.52,506.2,5.17l.64.63c10.69,11.34,3.62,41.25-10.69,66.58C479.88,101.15,455.3,125,455.3,125Z"/></svg>