<svg id="Layer_1" data-name="Layer 1" xmlns="http://www.w3.org/2000/svg" viewBox="0 0 512 512"><defs><style>.cls-1{fill:#c00;}</style></defs><title>icons-collection</title><path class="cls-1" d="M486,116H499.2L512,133.48V149L489,172.9l4.3,13.31,6.76-1.74v4.3l-5.53,2.56-3-2.76-3,1.64.82,3.48s-24.27,12.8-22.63,11.47a106.65,106.65,0,0,1,15.36-3.79V206l-16.18,5.63,5.12,5.12-7.68,15.77-8.91-6.86L462,235.88V244l-3,10.24-1.84-1.85,1-7.47-3.38-5.12-3,1.23-4.3-11.47v13.62l15.77,22.63-10.24,4.3,11.16-1.33v7.68l-8.6,1.74v4.2H463L460.39,288l-7.27-.51L418.2,335.72,436,379.65l5.63,11.16v14.95l-11.57,6.76-2.15-9.42h-6.35L405.81,378l1.64-11.16-17.51-13.62-13.21,8.91L365.67,351.9a221,221,0,0,0-32.87,3.48c-.82,1.64-4.71,7.27-4.71,7.27l3.07,1.64,8.09,8.09v6H329L322,371.35l-5.12,5.12h-6.15V366.23h-8.6L298.29,370H282L247.3,405v11.27H234.7L217.6,398.9l-13.41-32.46-21.1,7.88-32.66-39H135.07V341H103.63L71.68,309.81H44.13V296.7L17.61,270.08,0,196.25l10.85-8.4.72-26.21,15.26-33.08-.62-28.77,20.48,10.85-2.56-15L270,130.92l.72-8.91,5.12,1.23,2.56,9.62,39.62,6.35L295,155.9l23.66-.61,16.08-11.57-5.12,9,10.85,4.4,22.43-9.52,5.73,2.56-1.95,8.91-7.06-2L336,166.76l-5.73,14.13,10.24-9.63L336,195.53l7.68,21.81,8.4-20.48-3.28-19.25,10.86-13.41,15.46,4.5-3.89,19.15,9.63-5.73,4.4,15.36-6.35,13L389.12,215l28.16-22.43-3.89-8.91h17.92l7.78-8.29L434,168.29l12.7-13.41,27.54-3.28,5.12-7.68Z"/></svg>