<svg id="Layer_1" data-name="Layer 1" xmlns="http://www.w3.org/2000/svg" viewBox="0 0 512 512"><defs><style>.cls-1{fill:#c00;}</style></defs><title>icons-collection</title><path class="cls-1" d="M294,326.57V248.88H218v77.69ZM250,283.1V265.58h12V283.1h17.52v12H250Z"/><polygon class="cls-1" points="206 338.6 121.47 338.6 118.61 512 206 512 206 338.6"/><rect class="cls-1" x="262.01" y="338.6" width="31.96" height="173.4"/><polygon class="cls-1" points="306 326.57 390.34 326.57 389.06 248.88 306 248.88 306 326.57"/><polygon class="cls-1" points="206 248.88 122.94 248.88 121.66 326.57 206 326.57 206 248.88"/><polygon class="cls-1" points="390.53 338.6 306 338.6 306 512 393.39 512 390.53 338.6"/><rect class="cls-1" x="218.03" y="338.6" width="31.96" height="173.4"/><path class="cls-1" d="M385,0H338V48.47S309.12,8.72,255.75,8.72s-81.9,39.75-81.9,39.75V0h-46.8l-3.91,236.85H388.86ZM215.36,204.58H182.89v-118h32.47Zm56.88,0H239.76v-130S242.47,62.05,256,62.05s16.24,12.48,16.24,12.48Zm56.87,0H296.64v-118h32.47Z"/></svg>