<svg id="Layer_1" data-name="Layer 1" xmlns="http://www.w3.org/2000/svg" viewBox="0 0 512 512"><defs><style>.cls-1{fill:#c00;}</style></defs><title>icons-collection</title><rect class="cls-1" x="148.78" y="377.96" width="61.95" height="134.04"/><path class="cls-1" d="M434.68,424.35h-5.33V348.16h.51a11,11,0,0,0,10.35-11.47V12.9A13.43,13.43,0,0,0,428.43,0H144c-39.52,0-72.5,16-76.69,58.47V381A74,74,0,0,0,68,395.37a71.52,71.52,0,0,0,4,13.1l1.23,2.67a60.66,60.66,0,0,0,11.67,16.58,59.28,59.28,0,0,0,16.18,11.88,61,61,0,0,0,19.76,6.15,69.23,69.23,0,0,0,7.89,0h.51V426.19h-.51A42.12,42.12,0,1,1,125.53,342h269l1.63,83.66H230.39v19.25H434.57a10.24,10.24,0,0,0,10.24-10.24h0A10.23,10.23,0,0,0,434.68,424.35Z"/></svg>