<svg id="Layer_1" data-name="Layer 1" xmlns="http://www.w3.org/2000/svg" viewBox="0 0 512 512"><defs><style>.cls-1{fill:#c00;}</style></defs><title>icons-collection</title><path class="cls-1" d="M0,414.2V134.6c7.26-18.25,13.54-22.47,33.37-22.47H45.44V97.4h73.21v14.33a10.23,10.23,0,0,0,2,.3c23.85,0,47.6.1,71.45-.1a6.22,6.22,0,0,0,4.71-3.24c4.61-9.42,9-19,13.15-28.66,1.28-2.94,2.85-3.92,6.09-3.92q39.3.15,78.61,0c3.24,0,4.81,1.27,6.18,4,4.42,9.23,9.23,18.16,13.45,27.48,1.66,3.63,3.82,4.71,7.75,4.71,53.58-.19,107.17-.1,160.75-.1,18.16,0,29.25,11.09,29.25,29.15V406.65c-.1,18.45-11,29.24-29.64,29.24H367.05q-169.16,0-338.29-.19a38.73,38.73,0,0,1-15.12-3.54C6.08,428.92,2.75,421.66,0,414.2ZM256.25,151.68c-70.76,0-128.57,57.31-128.67,127.68S184.7,407.43,253.5,408.41c69.87,1,130.43-54.76,130.82-127.58A128,128,0,0,0,256.25,151.68Zm35.91-39.85c-3.33-6.48-6.08-12.27-9.22-17.86a5.41,5.41,0,0,0-4-2.06c-15.61-.1-31.31-.1-46.92,0-1.27,0-3.23.69-3.72,1.67-2.95,5.89-5.5,11.87-8.44,18.35C244.08,111.83,267.63,111.83,292.16,111.83Zm83.23,49a14.5,14.5,0,0,0,14.52,14.53,14.58,14.58,0,1,0-14.52-14.53Z"/><path class="cls-1" d="M360.57,280.24c0,58.1-46.81,104.42-105.6,104.32-56.73-.09-103.54-47.2-103.64-104.32a104.62,104.62,0,1,1,209.24,0Zm-18.45,0c.19-47.4-38.37-86.26-85.58-86.36-46.52-.2-85.38,38.27-86.46,83.51-1.08,46.43,35.62,88,84.89,88.53A85.9,85.9,0,0,0,342.12,280.24Z"/></svg>