<svg id="Layer_1" data-name="Layer 1" xmlns="http://www.w3.org/2000/svg" viewBox="0 0 512 512"><defs><style>.cls-1{fill:#c00;}</style></defs><title>icons-collection</title><path class="cls-1" d="M44,270.34a27.13,27.13,0,0,1,24.58,16.38h96.25a26.63,26.63,0,0,1,49.16,0H230.4V262.14H123.9V213H49.15L36.86,237.57H73.73v24.57H0v24.58H19.46A27.11,27.11,0,0,1,44,270.34Z"/><path class="cls-1" d="M427,264.19v-25.6h34.81L447.49,213h-84l-14.34,52.23H321.54v25.6H332.8a26.21,26.21,0,0,1,51.2,0h55.3a26.21,26.21,0,0,1,51.2,0H512V264.19H427Zm-20.48,0h-42l7.27-25.6h34.72Z"/><path class="cls-1" d="M121.86,1V122.88h13.31a26.63,26.63,0,0,1,53.25,0h1a26.63,26.63,0,0,1,53.25,0H367.62a26.62,26.62,0,1,1,53.24,0h1a26.63,26.63,0,0,1,53.25,0H512V1Z"/><path class="cls-1" d="M51.2,97.28a26.21,26.21,0,0,1,26.62,25.6h34.82V103.42H97.28V24.58H0V49.15H24.58V73.73H0v49.15H24.58A26.21,26.21,0,0,1,51.2,97.28Z"/><path class="cls-1" d="M51.2,105.47a17.41,17.41,0,0,0,0,34.82,17.93,17.93,0,0,0,17.41-17.41,17.31,17.31,0,0,0-17.2-17.41Z"/><path class="cls-1" d="M44,279.55a17.41,17.41,0,0,0,0,34.82A17.93,17.93,0,0,0,61.44,297a17.31,17.31,0,0,0-17.2-17.41Z"/><path class="cls-1" d="M189.44,279.55A17.41,17.41,0,1,0,206.85,297a16.7,16.7,0,0,0-15.94-17.41Q190.18,279.52,189.44,279.55Z"/><path class="cls-1" d="M375.83,297.06V297a16.7,16.7,0,0,0-16.05-17.31c-.46,0-.91,0-1.36,0a17.41,17.41,0,1,0,17.41,17.41Z"/><path class="cls-1" d="M481.89,297.37A17.3,17.3,0,0,0,464.69,280h-.2a17.41,17.41,0,1,0,17.4,17.41Z"/><path class="cls-1" d="M179.18,122.88a16.69,16.69,0,0,0-15.94-17.41q-.74,0-1.47,0a17.41,17.41,0,1,0,17.41,17.41Z"/><path class="cls-1" d="M233.45,122.88a17.3,17.3,0,0,0-17.2-17.41h-.2a17.41,17.41,0,1,0,17.4,17.41Z"/><path class="cls-1" d="M411.63,122.88h0a17.3,17.3,0,0,0-17.2-17.41h-.21a17.41,17.41,0,1,0,17.41,17.41Z"/><path class="cls-1" d="M465.9,122.88A16.69,16.69,0,0,0,450,105.47q-.73,0-1.47,0a17.41,17.41,0,1,0,17.41,17.41Z"/><path class="cls-1" d="M0,493.57H38.91A26.22,26.22,0,0,1,65.54,468a26.21,26.21,0,0,1,26.62,25.6,26.63,26.63,0,1,1,53.25,0h123.9a26.63,26.63,0,0,1,53.25,0h1a26.63,26.63,0,1,1,53.25,0h13.31V371.71H0Z"/><path class="cls-1" d="M414.72,474.11H399.36v19.46h34.82a26.62,26.62,0,1,1,53.24,0H512V444.42H487.42V419.84H512V395.26H414.72Z"/><path class="cls-1" d="M460.82,476.16a17.31,17.31,0,0,0-17.41,17.2v.21a17.41,17.41,0,1,0,17.41-17.41Z"/><path class="cls-1" d="M350.23,476.16a17.91,17.91,0,0,0-17.41,17.41,17.41,17.41,0,1,0,17.41-17.41Z"/><path class="cls-1" d="M296,476.16a17.31,17.31,0,0,0-17.41,17.2v.21A17.41,17.41,0,1,0,296,476.16Z"/><path class="cls-1" d="M118.78,476.16a17.91,17.91,0,0,0-17.4,17.41,17.41,17.41,0,1,0,17.4-17.41Z"/><path class="cls-1" d="M65.52,476.16a17.41,17.41,0,1,0,0,34.82,17.41,17.41,0,1,0,0-34.82Z"/><rect class="cls-1" x="133.12" y="188.42" width="124.93" height="63.49"/></svg>