<svg id="Layer_1" data-name="Layer 1" xmlns="http://www.w3.org/2000/svg" viewBox="0 0 512 512"><defs><style>.cls-1{fill:#c00;}</style></defs><title>icons-collection</title><rect class="cls-1" x="176.39" y="72.85" width="325.72" height="35.38"/><polygon class="cls-1" points="96.26 56.2 118.11 35.38 33.82 35.38 55.67 56.2 96.26 56.2"/><polygon class="cls-1" points="137.89 75.97 117.07 96.78 117.07 137.37 76.49 137.37 75.45 137.37 35.9 137.37 35.9 97.82 15.09 77.01 15.09 158.18 137.89 158.18 137.89 75.97"/><polygon class="cls-1" points="183.68 14.57 168.06 0 75.45 92.62 25.5 41.63 9.89 56.2 75.45 122.8 183.68 14.57"/><rect class="cls-1" x="176.39" y="249.76" width="325.72" height="35.38"/><polygon class="cls-1" points="96.26 233.11 118.11 212.29 33.82 212.29 55.67 233.11 96.26 233.11"/><polygon class="cls-1" points="137.89 252.88 117.07 273.69 117.07 314.28 76.49 314.28 75.45 314.28 35.9 314.28 35.9 274.73 15.09 253.92 15.09 335.09 137.89 335.09 137.89 252.88"/><polygon class="cls-1" points="183.68 191.48 168.06 176.91 75.45 269.53 25.5 218.54 9.89 233.11 75.45 299.71 183.68 191.48"/><rect class="cls-1" x="176.39" y="426.67" width="325.72" height="35.38"/><polygon class="cls-1" points="96.26 410.02 118.11 389.2 33.82 389.2 55.67 410.02 96.26 410.02"/><polygon class="cls-1" points="117.07 490.15 76.49 490.15 75.45 491.19 75.45 490.15 35.9 490.15 35.9 451.64 15.09 430.83 15.09 512 137.89 512 137.89 428.75 117.07 450.6 117.07 490.15"/><polygon class="cls-1" points="183.68 368.39 168.06 353.82 75.45 446.44 25.5 395.45 9.89 410.02 75.45 476.62 183.68 368.39"/></svg>