<svg id="Layer_1" data-name="Layer 1" xmlns="http://www.w3.org/2000/svg" viewBox="0 0 512 512"><defs><style>.cls-1{fill:#c00;}</style></defs><title>icons-collection</title><path class="cls-1" d="M328.1,64.17H287.87a39.34,39.34,0,0,0,7.42-16,40,40,0,1,0-71,16H184.15v48h144Zm-49.46-16a23.76,23.76,0,1,1,1.47-8A23.76,23.76,0,0,1,278.64,48.18Z"/><path class="cls-1" d="M141.43,165.39a16,16,0,1,0,16-16A16,16,0,0,0,141.43,165.39Z"/><rect class="cls-1" x="194.16" y="149.4" width="172.3" height="31.99"/><path class="cls-1" d="M157.42,232.57a16,16,0,1,0,16,16A16,16,0,0,0,157.42,232.57Z"/><rect class="cls-1" x="194.16" y="232.57" width="172.3" height="31.99"/><path class="cls-1" d="M157.42,315.73a16,16,0,1,0,16,16A16,16,0,0,0,157.42,315.73Z"/><rect class="cls-1" x="194.16" y="315.73" width="172.3" height="31.99"/><polygon class="cls-1" points="343.84 64.17 343.84 96.16 391.82 96.16 391.82 480.01 312.09 480.01 199.91 480.01 120.18 480.01 120.18 96.16 168.16 96.16 168.16 64.17 87.71 64.17 87.71 512 199.91 512 312.09 512 424.29 512 424.29 64.17 343.84 64.17"/><path class="cls-1" d="M157.42,398.9a16,16,0,1,0,16,16A16,16,0,0,0,157.42,398.9Z"/><rect class="cls-1" x="193.73" y="398.9" width="172.3" height="31.99"/></svg>