<svg id="Layer_1" data-name="Layer 1" xmlns="http://www.w3.org/2000/svg" viewBox="0 0 512 512"><defs><style>.cls-1{fill:#c00;}</style></defs><title>icons-collection</title><path class="cls-1" d="M256,0C114.74,0,.23,114.62.23,256S114.74,512,256,512,511.77,397.38,511.77,256,397.26,0,256,0Zm0,483.33C130.56,483.33,28.87,381.55,28.87,256S130.58,28.73,256,28.67,483.13,130.45,483.13,256,381.44,483.33,256,483.33Z"/><rect class="cls-1" x="427.88" y="241.66" width="39.9" height="28.67"/><rect class="cls-1" x="44.22" y="241.66" width="39.9" height="28.67"/><rect class="cls-1" x="241.68" y="428.03" width="28.65" height="39.94"/><path class="cls-1" d="M367.52,146.43l-106.4,45.06v-76.8H246.79v81.92L208.94,215l-14.33,33.79H110.72v14.34h77.76L141.41,373.76l106.41-46.08v76.8h14.32V322.56L300,306.18l18.42-42h79.8V248.83H323.52ZM172.11,342l50.13-114.69,65.48,65.53Z"/><rect class="cls-1" x="240.65" y="44.03" width="28.65" height="39.94"/></svg>