<svg id="Layer_1" data-name="Layer 1" xmlns="http://www.w3.org/2000/svg" viewBox="0 0 512 512"><defs><style>.cls-1{fill:#c00;}</style></defs><title>icons-collection</title><polygon class="cls-1" points="310.9 232.38 330.3 232.38 375.2 123.18 355.81 123.18 310.9 232.38"/><polygon class="cls-1" points="299.17 232.38 245.08 83.38 225.69 83.38 279.78 232.38 299.17 232.38"/><polygon class="cls-1" points="117.21 428.32 64.14 282.38 44.75 282.38 97.82 428.32 117.21 428.32"/><polygon class="cls-1" points="128.13 428.32 146.4 428.32 214.87 83.38 196.4 83.38 128.13 428.32"/><polygon class="cls-1" points="465.41 311.98 406.22 123.18 386.83 123.18 446.02 311.98 465.41 311.98"/><polygon class="cls-1" points="73.84 273.2 73.84 198.7 0.36 198.7 0.36 273.2 0.36 273.2 73.84 273.2 73.84 273.2"/><rect class="cls-1" x="87.71" y="437.5" width="73.48" height="74.5"/><rect class="cls-1" x="182.01" width="73.48" height="74.5"/><rect class="cls-1" x="343.46" y="39.09" width="73.48" height="74.5"/><polygon class="cls-1" points="263.96 241.35 263.65 241.35 263.65 315.85 263.96 315.85 337.13 315.85 337.44 315.85 337.44 241.35 337.13 241.35 263.96 241.35"/><rect class="cls-1" x="438.16" y="320.14" width="73.48" height="74.5"/></svg>