<svg id="Layer_1" data-name="Layer 1" xmlns="http://www.w3.org/2000/svg" viewBox="0 0 512 512"><defs><style>.cls-1{fill:#c00;}</style></defs><title>icons-collection</title><rect class="cls-1" x="406.76" y="355.12" width="73.67" height="7.02"/><rect class="cls-1" x="406.76" y="374.36" width="73.67" height="7.02"/><rect class="cls-1" x="406.76" y="392.75" width="56.98" height="7.02"/><rect class="cls-1" x="406.76" y="335.88" width="73.67" height="7.02"/><rect class="cls-1" x="406.76" y="317.38" width="73.67" height="7.02"/><rect class="cls-1" x="448" y="269.22" width="32.42" height="32.42"/><rect class="cls-1" x="405.91" y="269.22" width="32.42" height="32.42"/><path class="cls-1" d="M500.2,225.43a4.68,4.68,0,0,0-.53,0h-113a12,12,0,0,0-12.33,11.68c0,.18,0,.36,0,.54V462.06a12.13,12.13,0,0,0,11.91,12.33H499.67A12.12,12.12,0,0,0,512,462.49V237.65A12,12,0,0,0,500.2,225.43ZM433,233.51h23.18a2.13,2.13,0,0,1,2.13,2.12.41.41,0,0,1,0,.11,2.13,2.13,0,0,1-2.12,2.13H433a2.14,2.14,0,0,1-2.23-2v-.11A2.23,2.23,0,0,1,433,233.51Zm12.36,226.65a8.42,8.42,0,0,1-.87,0l.53-.32a5.56,5.56,0,1,1,.34.33Zm-54.88-26.91V247.33H498l.21,185.92Z"/><rect class="cls-1" x="191.16" y="96.96" width="213.29" height="10.06"/><rect class="cls-1" x="191.16" y="118.09" width="213.29" height="10.06"/><rect class="cls-1" x="191.16" y="140.23" width="53.32" height="9.05"/><rect class="cls-1" x="94.57" y="89.92" width="70.43" height="70.43"/><rect class="cls-1" x="191.16" y="199.58" width="213.29" height="10.06"/><rect class="cls-1" x="191.16" y="242.85" width="104.63" height="10.06"/><rect class="cls-1" x="94.57" y="190.53" width="70.43" height="70.43"/><rect class="cls-1" x="191.16" y="220.71" width="171.76" height="10.06"/><polygon class="cls-1" points="61.37 57.73 440.66 57.73 440.66 216.63 460.79 216.63 460.79 37.61 41.25 37.61 41.25 319.31 362.91 319.31 362.91 299.19 61.37 299.19 61.37 57.73"/><polygon class="cls-1" points="291.76 341.64 212.28 341.64 212.28 333.59 0 333.59 0 360.76 362.91 360.76 362.91 333.59 291.76 333.59 291.76 341.64"/></svg>