<svg id="Layer_1" data-name="Layer 1" xmlns="http://www.w3.org/2000/svg" viewBox="0 0 512 512"><defs><style>.cls-1{fill:#c00;}</style></defs><title>icons-collection</title><rect class="cls-1" x="237.57" width="36.86" height="54.27"/><path class="cls-1" d="M49.15,63.49V334.85h413.7V63.49Zm384,240.64H78.85v-212h354.3Z"/><rect class="cls-1" x="110.59" y="190.46" width="44.03" height="87.04"/><rect class="cls-1" x="163.84" y="158.72" width="44.03" height="118.78"/><rect class="cls-1" x="218.11" y="128" width="44.03" height="149.5"/><rect class="cls-1" x="304.13" y="240.64" width="98.3" height="10.24"/><rect class="cls-1" x="304.13" y="267.26" width="56.32" height="10.24"/><rect class="cls-1" x="304.13" y="215.04" width="98.3" height="10.24"/><rect class="cls-1" x="304.13" y="188.42" width="98.3" height="10.24"/><rect class="cls-1" x="360.45" y="128" width="41.98" height="41.98"/><rect class="cls-1" x="304.13" y="128" width="41.98" height="41.98"/><polygon class="cls-1" points="101.38 512 140.29 512 187.39 343.04 148.48 343.04 101.38 512"/><polygon class="cls-1" points="324.61 343.04 371.71 512 410.62 512 363.52 343.04 324.61 343.04"/></svg>