<svg id="Layer_1" data-name="Layer 1" xmlns="http://www.w3.org/2000/svg" viewBox="0 0 512 512"><defs><style>.cls-1{fill:#c00;}</style></defs><title>icons-collection</title><g id="_..." data-name="..."><path class="cls-1" d="M202,334.52l-40.19,18.61-12.26,5.6v59H0V291.48l68.73-31.72a100.17,100.17,0,0,0,105.85.63l4.86,2.12a72.81,72.81,0,0,0-.53,9.62C178.91,296.55,187.69,318.65,202,334.52Z"/><path class="cls-1" d="M122.2,242.88c44.11,0,79.88-42.74,79.88-95.46S166.31,52,122.2,52,42.31,94.7,42.31,147.42,78.08,242.88,122.2,242.88Z"/></g><g id="_...-2" data-name="..."><path class="cls-1" d="M512,291.48V417.73H362.48V358.52l-12.69-5.61-40.81-18c14.38-16,23.37-38.17,23.37-62.81a89.68,89.68,0,0,0-.64-10.68l3.6-1.69a100.15,100.15,0,0,0,105.84.63Z"/><path class="cls-1" d="M388.77,242.88c44.12,0,79.89-42.74,79.89-95.46S432.89,52,388.77,52s-79.88,42.73-79.88,95.45S344.66,242.88,388.77,242.88Z"/></g><g id="_...-3" data-name="..."><path class="cls-1" d="M341.33,372.27V460H170.67V372.27l47.79-22.1a70,70,0,0,0,27,9.94,55.48,55.48,0,0,0,10.25.84,62.63,62.63,0,0,0,10.89-.95,68.84,68.84,0,0,0,25.49-9.41Z"/><path class="cls-1" d="M311.2,272.13c0,32.14-19.14,59-44.63,65a46.29,46.29,0,0,1-10.89,1.27,46.81,46.81,0,0,1-10.25-1.16c-25.91-5.72-45.37-32.78-45.37-65.14v-.53c.21-36.48,25-65.88,55.62-65.88,30.35,0,54.88,29,55.41,65.14A5,5,0,0,1,311.2,272.13Z"/></g></svg>