<svg id="Layer_1" data-name="Layer 1" xmlns="http://www.w3.org/2000/svg" viewBox="0 0 512 512"><defs><style>.cls-1{fill:#c00;}</style></defs><title>icons-collection</title><path class="cls-1" d="M194.17,245.78c16.35-11.24,28.62-27.59,35.77-46l17.37,4.09,9.2-40.88-15.33-5.11V153.8c0-19.41-5.11-36.79-13.28-53.14l13.28-11.24-24.53-32.7L201.33,68C186,55.7,168.62,46.5,148.18,43.43V25H107.31V43.43C87.89,47.52,70.52,56.72,55.19,70L40.88,58.76,14.31,91.46l15.33,11.25c-9.2,16.35-12.27,33.72-12.27,52.12v5.11L0,163l7.15,40.88,17.38-4.09c7.15,18.4,21.46,33.73,36.79,46l-7.16,16.35L91,279.51l7.16-16.36a98.62,98.62,0,0,0,29.63,4.09,98.69,98.69,0,0,0,29.64-4.09l7.15,16.36,36.8-17.38Zm-66.43-28.61a63.37,63.37,0,1,1,63.37-63.37A63.69,63.69,0,0,1,127.74,217.17Z"/><path class="cls-1" d="M127.74,101.68a52.12,52.12,0,1,0,52.12,52.12A52.35,52.35,0,0,0,127.74,101.68Zm0,69.5c-10.22,0-17.37-7.16-17.37-17.38s7.15-17.37,17.37-17.37,17.38,7.15,17.38,17.37S138,171.18,127.74,171.18Z"/><path class="cls-1" d="M493.6,323.45l18.4-4.09-9.2-40.88-18.39,4.09A177.62,177.62,0,0,0,466,248.85l13.29-13.29-28.62-29.64L437.4,219.21a178,178,0,0,0-33.73-18.4l5.11-19.41-40.88-9.2-4.08,18.39c-12.27-1-26.57,0-38.84,2l-7.15-17.37L279,188.55l7.16,18.4a131.54,131.54,0,0,0-30.66,22.48l-16.35-12.26-24.53,33.72L231,263.15c-6.13,11.25-11.24,23.51-13.28,35.77l-21.46-1-2.05,40.88,19.42,1a196,196,0,0,0,7.15,36.79l-17.37,9.2,19.42,36.79,17.37-9.2A117.61,117.61,0,0,0,267.75,441l-10.22,17.38,34.75,19.41,10.22-17.37c6.13,2.05,12.26,4.09,18.39,5.11s12.27,2,18.4,2l1,19.42,40.88-2-1-19.42c12.26-2,24.52-7.15,35.77-13.28l11.24,16.35L460.9,444l-11.24-16.35c9.2-9.2,17.37-18.4,23.51-30.66l18.39,7.15,15.33-38.83-17.37-6.13C493.6,349,493.6,335.71,493.6,323.45Zm-141,88.91a81.76,81.76,0,1,1,81.75-81.76A81.35,81.35,0,0,1,352.58,412.36Z"/><path class="cls-1" d="M352.58,260.09c-39.86,0-70.52,32.7-70.52,70.51s32.7,70.52,70.52,70.52c39.85,0,70.51-32.7,70.51-70.52S392.43,260.09,352.58,260.09Zm0,98.11c-16.36,0-28.62-12.27-28.62-28.62S336.22,301,352.58,301s28.61,12.26,28.61,28.61S368.93,358.2,352.58,358.2Z"/></svg>