<svg id="Layer_1" data-name="Layer 1" xmlns="http://www.w3.org/2000/svg" viewBox="0 0 512 512"><defs><style>.cls-1{fill:#c00;}</style></defs><title>icons-collection</title><path class="cls-1" d="M256,0C114.84,0,0,114.84,0,256S114.84,512,256,512,512,397.16,512,256,397.16,0,256,0ZM356.45,468A223.85,223.85,0,0,1,256,491.16a237.16,237.16,0,0,1-80.39-14.07c2-16.08,9-32.16,33.16-32.16,0-31.15,31.15-47.23,31.15-47.23V381.63l-70.34-70.34s-55.27,8-70.34-23.12H68.05V256h39.19V272.1h8V256s16.08-62.3,62.3-62.3a15.77,15.77,0,0,1,15.47-16.08h.61v-8c-9-9-9-15.07,0-23.11,0-16.08-16.08-47.23-16.08-47.23h16.08V83.18H177.58V67.1A15.78,15.78,0,0,1,161.5,51.63V51H138.39a283.24,283.24,0,0,1,47.23-21.1C198.68,40,207.73,50,207.73,66.1H223.8V82.18H207.73V98.25s16.07,0,16.07,31.15h16.08V83.18h47.23a22.61,22.61,0,0,1,22.1-23.11h1V27.91A251.87,251.87,0,0,1,393.63,66.1l-44.22,49.24v8h37.18v-8h17.09l22.1-21.11a90.76,90.76,0,0,1,9.05,10,69.57,69.57,0,0,1-31.15,43.21l-6-16.08h-10v16.08l-33.16,31.15v16.08H312.23v23.11a23.31,23.31,0,0,1,25,21.44c.05.55.07,1.11.07,1.67H320.27V256c-42.2,39.19,0,94.46,0,94.46h50.25v62.3C354.44,428.85,356.45,428.85,356.45,468ZM84.13,319.32v31.16h-9v39.19c16.08,0,55.27,23.11,55.27,55.26l7,15.08A238.17,238.17,0,0,1,20.82,265.06C36.9,272.1,52,283.15,52,303.25a15.77,15.77,0,0,1,16.08,15.47v.6ZM365.49,208.79l16.08-23.11L460,224.87v16.07c0-1-78.38,15.08-78.38-32.15Z"/></svg>