<svg id="Layer_1" data-name="Layer 1" xmlns="http://www.w3.org/2000/svg" viewBox="0 0 512 512"><defs><style>.cls-1{fill:#c00;}</style></defs><title>icons-collection</title><path class="cls-1" d="M91.47,162.49c0-9.2-6.14-17.37-14.31-19.42v-9.19l-14.31-3.07V144.1c-8.18,3.06-14.31,10.22-14.31,19.41,0,6.13,3.07,12.27,7.16,15.33V283.08h7.15v7.16H77.16v-7.16h7.15V177.82C88.4,173.73,91.47,168.62,91.47,162.49Z"/><path class="cls-1" d="M129.28,121.61c4.09-3.06,8.17-5.11,12.26-8.17,17.37-10.22,38.84-17.38,61.32-21.46,6.13-1,11.24-2,17.37-3.07,12.27-1,24.53-2,35.77-2h0A310.14,310.14,0,0,1,326.51,95c21.47,5.11,41.91,14.31,57.23,25.55V139l97.09-28.62L256,0,31.17,113.44,129.28,138Z"/><path class="cls-1" d="M256,97.09c47,0,90.95,11.24,118.55,29.63v38.84H138.48V126.72C165.05,108.33,209,97.09,256,97.09"/><polygon class="cls-1" points="137.45 174.75 137.45 331.11 187.53 381.19 187.53 411.85 325.49 411.85 325.49 379.15 373.52 331.11 373.52 174.75 137.45 174.75"/><path class="cls-1" d="M417.47,425.13H327.54L256,511l-68.47-85.85h-93s-94,0-94,86.87h511C511.49,425.13,417.47,425.13,417.47,425.13Z"/></svg>