<svg id="Layer_1" data-name="Layer 1" xmlns="http://www.w3.org/2000/svg" viewBox="0 0 512 512"><defs><style>.cls-1{fill:#c00;}</style></defs><title>icons-collection</title><path class="cls-1" d="M267.26,337.81l-.26.46-.76-.46L251.16,364l-32-21-.25.52-.78-.52-9,19-44.25-25.14-.25.44-.77-.44-11,19-52.48-30.27c-.09.14-.16.29-.25.44l-.77-.44a49.94,49.94,0,0,0-3.07,42,24.32,24.32,0,0,0,6.83,9.09l.31.26.09.08a21.6,21.6,0,0,0,15.29,4.91,42.09,42.09,0,0,0,13.4-2.72c.59-.21.94-.36.94-.36a45.06,45.06,0,0,0,45.06,25.6,35.21,35.21,0,0,0,27.6,16.26c1,.08,2.07.14,3.12.13a32.58,32.58,0,0,0,13.49-2.71c1.37,2.75,4.47,5.81,8.48,8.21A25.61,25.61,0,0,0,245.76,431a20.47,20.47,0,0,0,18.43-11.27,472.62,472.62,0,0,0,30.72-65.53Z"/><polygon class="cls-1" points="161.79 165.78 123.9 145.3 61.44 307.09 95.23 325.53 161.79 165.78"/><path class="cls-1" d="M188.42,259,243.71,219l9.22,5.12L410.62,325.53,344.06,165.78c-23.55-18.43-34.81-27.65-62.46-27.65-31.74,0-114.69,80.9-115.71,80.9Z"/><polygon class="cls-1" points="352.26 161.69 353.28 162.71 418.82 320.41 449.54 304.02 386.05 143.25 352.26 161.69"/><polygon class="cls-1" points="394.24 137.11 394.42 137.56 393.22 138.13 478.21 352.15 512 334.74 512 333.72 512 80.79 394.24 137.11"/><polygon class="cls-1" points="0 81.81 0 334.74 0 334.74 33.79 352.15 117.76 138.13 0 81.81"/><path class="cls-1" d="M405.5,332.69,248.83,232.34l-4.09-2.05-50.18,35.84-8.19,6.15-5.12-9.22-22.53-39.93L155.65,217l5.12-5.12a468.19,468.19,0,0,1,89.09-71.68,27.27,27.27,0,0,0-12.29-3.07c-27.65,0-38.91,9.22-62.47,27.65L110.59,319.38l38.91,23.55,6.15-11.26,4.09-8.19,8.2,5.12,35.84,20.48,5.12-10.24,5.12-9.22,9.21,6.15,24.58,16.38,10.24-17.41,5.12-8.19,8.19,5.12L299,348.05l7.17,4.1-4.1,6.14a534.58,534.58,0,0,1-30.72,67.59,8,8,0,0,1-4.1,4.09A25.39,25.39,0,0,0,297,418.71a35.22,35.22,0,0,0,44-13.31,44.53,44.53,0,0,0,44-26.63s27.65,11.27,37.89-11.26A33.4,33.4,0,0,0,426,346Z"/></svg>