<svg id="Layer_1" data-name="Layer 1" xmlns="http://www.w3.org/2000/svg" viewBox="0 0 512 512"><defs><style>.cls-1{fill:#c00;}</style></defs><title>icons-collection</title><path class="cls-1" d="M256,487.94,409.6,372.22S512,294.4,512,198.14,443.39,24.06,358.4,24.06c-54.27,0-86,36.87-102.4,60.42m0,0C237.57,59.9,206.85,24.06,153.6,24.06,68.61,24.06,0,101.89,0,198.14S102.4,372.22,102.4,372.22L256,487.94M156.67,297.47H95.23V214.53H157.7l-1,82.94Zm87,0H181.25V152.06h62.46Zm87,0H268.29V194.05h62.46Zm87,0H355.33V131.58h62.46Z"/></svg>