<svg id="Layer_1" data-name="Layer 1" xmlns="http://www.w3.org/2000/svg" viewBox="0 0 512 512"><defs><style>.cls-1{fill:#c00;}</style></defs><title>icons-collection</title><path class="cls-1" d="M375.53,314c16.45,0,19.12-28,19.12-47.7,0-9-1-25.9-3.7-35.36-.82-3.9-4.31-16.65-15.62-16.65-8.84,0-12.75,8-14.19,12.34-4.73,14.59-4.73,36.59-4.73,40.09C356.41,291.18,360.11,314,375.53,314Z"/><path class="cls-1" d="M265.54,243.9c0-1.86.2-12.13.41-15.84l-36.6,53.66h36.19Z"/><path class="cls-1" d="M143,243.9c0-1.86.2-12.13.41-15.84l-36.6,53.66H143Z"/><rect class="cls-1" width="512" height="80"/><path class="cls-1" d="M0,320,256,512,512,320V112H0ZM375.12,190.44c20.15,0,32.07,10.9,37.42,18.92,7.4,10.89,12.95,24.87,12.95,51.8,0,33.31-7.6,77.1-50.78,77.1-36.8,0-49.54-35.36-49.54-73.6C325.17,245.54,329.07,190.44,375.12,190.44ZM206.33,277l57.56-84.5h30.64l-.21,88.61h19.53v23.64H294.32V336H263.89V304.75H206.33ZM83.77,277l57.56-84.5H172l-.21,88.61h19.53v23.64H171.76V336H141.33V304.75H83.77Z"/></svg>