<svg id="Layer_1" data-name="Layer 1" xmlns="http://www.w3.org/2000/svg" viewBox="0 0 512 512"><defs><style>.cls-1{fill:#c00;}</style></defs><title>icons-collection</title><g id="_..." data-name="..."><path class="cls-1" d="M172.1,354v76.74H85V314.22H72.39L65.63,204.16l35.22-16.35a51.24,51.24,0,0,0,50.86,2.27l6.44,104,1.26,20.13,1.71,27.89.75,11.87Z"/><polygon class="cls-1" points="172.1 294.09 172.1 314.22 172.03 314.22 170.77 294.09 172.1 294.09"/><path class="cls-1" d="M128.29,179.2c22.63,0,41-21.92,41-49s-18.34-49-41-49-41,21.92-41,49S105.67,179.2,128.29,179.2Z"/></g><polygon class="cls-1" points="172.1 294.09 172.1 315.23 172.03 314.22 170.77 294.09 172.1 294.09"/><g id="_...-2" data-name="..."><polygon class="cls-1" points="341.23 294.09 339.97 314.22 339.9 314.22 339.9 294.09 341.23 294.09"/><path class="cls-1" d="M446.37,204.16l-6.76,110.06H427v116.5H339.9V354h10.23l.75-11.87,1.71-27.89,1.26-20.13,6.37-103.82a50.29,50.29,0,0,0,23,5.49A51.92,51.92,0,0,0,410,188.19Z"/><path class="cls-1" d="M383.19,179.2c22.63,0,41-21.92,41-49s-18.34-49-41-49-41,21.92-41,49S360.57,179.2,383.19,179.2Z"/></g><polygon class="cls-1" points="341.23 294.09 339.97 314.22 339.9 315.23 339.9 294.09 341.23 294.09"/><g id="_...-3" data-name="..."><path class="cls-1" d="M348.23,180.05l-.69,11.55-6.31,102.49H339.9v21.14l-1.64,26.12H319.77V512H192.23V341.35H173.74l-1.64-26.12V294.09h-1.33l-6.25-101.8-.75-12.24,51.68-23.92a75.3,75.3,0,0,0,79.52.51Z"/><polygon class="cls-1" points="170.77 294.09 172.1 294.09 172.1 315.23 172.03 314.22 170.77 294.09"/><polygon class="cls-1" points="341.23 294.09 339.97 314.22 339.9 315.23 339.9 294.09 341.23 294.09"/><path class="cls-1" d="M315.67,71.75c0,39.57-26.89,71.7-60,71.7s-60.08-32.13-60.08-71.7S222.46,0,255.65,0,315.67,32.12,315.67,71.75Z"/></g></svg>