<svg id="Layer_1" data-name="Layer 1" xmlns="http://www.w3.org/2000/svg" viewBox="0 0 512 512"><defs><style>.cls-1{fill:#c00;}</style></defs><title>icons-collection</title><rect class="cls-1" x="22.22" y="231.42" width="49.15" height="18.43"/><rect class="cls-1" x="441.65" y="231.42" width="48.13" height="18.43"/><polygon class="cls-1" points="298.8 413.7 289.28 413.7 289.28 384.72 258.87 384.72 258.87 420.76 249.34 420.76 249.34 384.72 219.03 384.72 219.03 413.7 209.51 413.7 209.51 384.72 180.94 384.72 180.94 426.5 210.43 440.73 210.43 453.12 299.73 453.12 299.73 440.73 329.22 426.5 329.22 384.72 298.8 384.72 298.8 413.7"/><polygon class="cls-1" points="210.43 497.77 227.53 497.77 236.03 512 274.13 512 282.62 497.77 299.73 497.77 299.73 485.38 210.43 485.38 210.43 497.77"/><rect class="cls-1" x="210.43" y="462.64" width="89.29" height="13.31"/><path class="cls-1" d="M256.51,90.21A140.39,140.39,0,0,0,175.82,345.7h-.51L180.94,375H329.22l8.5-29.29a140.61,140.61,0,0,0,59.9-114.89A142.35,142.35,0,0,0,256.51,90.21Z"/><rect class="cls-1" x="383.67" y="70.44" width="49.15" height="18.43" transform="translate(61.92 310.02) rotate(-44.67)"/><rect class="cls-1" x="248.83" width="18.43" height="49.15"/><rect class="cls-1" x="94.68" y="55.03" width="18.43" height="49.15" transform="translate(-25.76 97.53) rotate(-45.33)"/></svg>