<svg id="Layer_1" data-name="Layer 1" xmlns="http://www.w3.org/2000/svg" viewBox="0 0 512 512"><defs><style>.cls-1{fill:#c00;}</style></defs><title>icons-collection</title><polygon class="cls-1" points="402.81 172.68 255.53 172.68 268.73 184.87 394.68 184.87 402.81 172.68"/><polygon class="cls-1" points="194.58 172.68 44.25 172.68 44.25 184.87 186.46 184.87 194.58 172.68"/><polygon class="cls-1" points="33.08 479.43 33.08 0 0.51 0 0.51 512 511.49 512 511.49 479.43 33.08 479.43"/><polygon class="cls-1" points="362.18 348.4 357.1 356.52 501.33 356.52 501.33 343.32 365.23 343.32 362.18 348.4"/><polygon class="cls-1" points="158.01 343.32 148.87 356.52 353.04 356.52 347.96 350.43 340.85 343.32 158.01 343.32"/><polygon class="cls-1" points="83.87 343.32 44.25 343.32 44.25 356.52 75.74 356.52 83.87 343.32"/><polygon class="cls-1" points="227.09 218.38 354.05 343.32 459.69 182.83 495.24 206.19 502.35 77.2 386.56 136.11 423.12 159.47 346.94 276.28 219.97 150.33 43.24 423.56 79.8 446.93 227.09 218.38"/></svg>