<svg id="Layer_1" data-name="Layer 1" xmlns="http://www.w3.org/2000/svg" viewBox="0 0 512 512"><defs><style>.cls-1{fill:#c00;}</style></defs><title>icons-collection</title><path class="cls-1" d="M385.54,448.51a132.26,132.26,0,0,0,0-104.45l-51.2,28.68a75.89,75.89,0,0,1-17.41,75.77l-123.91,1a209.48,209.48,0,0,1-13.31-147.46,193.17,193.17,0,0,1,43-80.9l48.13,86,19.45-11.26,21.51,38.91,54.27-33.79-21.5-37.89L362,252.93,242.18,29.7,146.94,84l42,76.8a271.48,271.48,0,0,0-72.71,123.9,266.28,266.28,0,0,0,6.15,164.87H23V511H329.22v1l1-1H489V448.51Z"/><polygon class="cls-1" points="238.08 23.55 225.79 0 129.54 54.27 142.85 77.82 238.08 23.55"/><rect class="cls-1" x="280.95" y="331.03" width="139.26" height="22.53" transform="translate(-123.62 219) rotate(-29.74)"/></svg>