<svg id="Layer_1" data-name="Layer 1" xmlns="http://www.w3.org/2000/svg" viewBox="0 0 512 512"><defs><style>.cls-1{fill:#c00;}</style></defs><title>icons-collection</title><rect class="cls-1" x="182.99" y="266.82" width="151.43" height="14.42"/><rect class="cls-1" x="182.99" y="306.48" width="151.43" height="14.42"/><rect class="cls-1" x="182.99" y="344.34" width="117.18" height="14.42"/><rect class="cls-1" x="182.99" y="227.16" width="151.43" height="14.42"/><rect class="cls-1" x="182.99" y="189.3" width="151.43" height="14.42"/><rect class="cls-1" x="267.72" y="90.14" width="66.7" height="66.7"/><rect class="cls-1" x="181.19" y="90.14" width="66.7" height="66.7"/><path class="cls-1" d="M373.37,0H139.72a24.68,24.68,0,0,0-25.24,24.14c0,.37,0,.73,0,1.1v461.5A24.7,24.7,0,0,0,138.63,512H372.28a24.68,24.68,0,0,0,25.24-24.14c0-.37,0-.73,0-1.1V25.25A24.7,24.7,0,0,0,373.37,0ZM258.7,486.75a16.23,16.23,0,1,1,16.23-16.22A16.22,16.22,0,0,1,258.7,486.75Zm110-57.68H146.93V46.88H368.67Z"/></svg>