<svg id="Layer_1" data-name="Layer 1" xmlns="http://www.w3.org/2000/svg" viewBox="0 0 512 512"><defs><style>.cls-1{fill:#c00;}</style></defs><title>icons-collection</title><circle class="cls-1" cx="282.99" cy="241.58" r="95.02"/><path class="cls-1" d="M395.68,451.29a70.53,70.53,0,0,0,7.08,6.75A70.53,70.53,0,0,1,395.68,451.29Z"/><path class="cls-1" d="M395.68,451.29c-1.14-1.26-2.22-2.57-3.27-3.91C393.46,448.72,394.54,450,395.68,451.29Z"/><circle class="cls-1" cx="446.03" cy="105.6" r="65.97"/><circle class="cls-1" cx="446.03" cy="405.55" r="65.97"/><circle class="cls-1" cx="65.97" cy="242.51" r="65.97"/><path class="cls-1" d="M182.4,251.72q-.47-4.8-.47-9.71,0-4.41.38-8.72h-45a69.48,69.48,0,0,1,.11,18.43Z"/><path class="cls-1" d="M385,144.22l-30.8,25.84A102,102,0,0,1,366,184.21l30.7-25.76A72.52,72.52,0,0,1,385,144.22Z"/><path class="cls-1" d="M436.28,471.23a65.87,65.87,0,0,1-35.83-17.59A65.87,65.87,0,0,0,436.28,471.23Z"/><path class="cls-1" d="M402.78,348.44l-41.33-41.32a102.24,102.24,0,0,1-13,13l41.17,41.17A73.17,73.17,0,0,1,402.78,348.44Z"/></svg>