<svg id="Layer_1" data-name="Layer 1" xmlns="http://www.w3.org/2000/svg" viewBox="0 0 512 512"><defs><style>.cls-1{fill:#c00;}</style></defs><title>icons-collection</title><path class="cls-1" d="M131.93,0V42.46H89.47V85H47V512H380.07V469.51h42.49V427.05H465V0ZM359.57,491.5H67.47v-386h22V469.51h270.1ZM402.06,449H110V63h22V427.05H402.06Zm42.47-42.46H152.43V20.5h292.1Z"/><rect class="cls-1" x="190.02" y="64.89" width="214.36" height="16.25"/><rect class="cls-1" x="190.02" y="159.7" width="214.36" height="16.25"/><rect class="cls-1" x="190.02" y="111.87" width="214.36" height="16.25"/><rect class="cls-1" x="190.02" y="206.68" width="214.36" height="16.25"/><rect class="cls-1" x="190.02" y="254.5" width="214.36" height="16.25"/><rect class="cls-1" x="190.02" y="301.48" width="214.36" height="16.25"/><rect class="cls-1" x="190.01" y="349.32" width="108.47" height="16.23"/></svg>