<svg id="Layer_1" data-name="Layer 1" xmlns="http://www.w3.org/2000/svg" viewBox="0 0 512 512"><defs><style>.cls-1{fill:#c00;}</style></defs><title>icons-collection</title><path class="cls-1" d="M352,376V72l1-48L96,72V366.66A79.8,79.8,0,0,0,64,360c-35.35,0-64,21.49-64,48s28.65,48,64,48,64-21.49,64-48V114L320,78V334.66A79.8,79.8,0,0,0,288,328c-35.35,0-64,21.49-64,48s28.65,48,64,48S352,402.51,352,376Z"/><path class="cls-1" d="M480,104V398.66A79.8,79.8,0,0,0,448,392c-35.35,0-64,21.49-64,48s28.65,48,64,48,64-21.49,64-48V104Z"/></svg>