<svg id="Layer_1" data-name="Layer 1" xmlns="http://www.w3.org/2000/svg" viewBox="0 0 512 512"><defs><style>.cls-1{fill:#c00;}</style></defs><title>icons-collection</title><path class="cls-1" d="M495.65,152.27H160.45l-8.18,16.35H135.92V185h-8.18c-14.3,16.36-48,16.36-48,16.36v15.32H64.38L48,233H31.68A45.52,45.52,0,0,1,0,248.34v23.5H64.38C96.06,255.49,188,259.58,188,259.58L208.48,280h64.38l64.39,79.71H367.9l48-48,31.68-16.35h32.7V279L464,288.19H447.62l-16.35-16.35L447.62,280l23.5-12.27V255.49H463l-16.36-16.35L463,247.31h31.68L511,231V199.28H502.8V231h-8.17V199.28H463l31.68-16.35H512V168.62ZM381.19,264.69,351.55,242.2l-29.63,22.49,11.24-36.79-29.64-22.49h36.79l11.24-36.79,11.24,36.79h36.79L370,227.9Z"/></svg>