<svg id="Layer_1" data-name="Layer 1" xmlns="http://www.w3.org/2000/svg" viewBox="0 0 512 512"><defs><style>.cls-1{fill:#c00;}</style></defs><title>icons-collection</title><path class="cls-1" d="M202.19,186.86H168.46a87.83,87.83,0,0,0,61.14,79.59,72.23,72.23,0,0,1-12.37-16.89C208,232.63,202.73,210.49,202.19,186.86Z"/><path class="cls-1" d="M416.36,0H68.61V512H416.36s27-.51,27-27V27S440.59,0,416.36,0ZM351.59,376.07H160.41V349.18H351.59ZM256,278.47a95.6,95.6,0,1,1,95.59-95.59A95.7,95.7,0,0,1,256,278.47Z"/><path class="cls-1" d="M217.23,116.19A72.37,72.37,0,0,1,229.6,99.31a87.81,87.81,0,0,0-61.14,79.59h33.73C202.73,155.26,208,133.12,217.23,116.19Z"/><path class="cls-1" d="M224.22,120c-8.6,15.79-13.55,36.58-14.07,58.9H252V95.59C241.68,97.33,231.93,105.84,224.22,120Z"/><path class="cls-1" d="M224.22,245.76c7.71,14.16,17.46,22.66,27.8,24.41V186.86H210.15C210.67,209.17,215.62,230,224.22,245.76Z"/><path class="cls-1" d="M282.4,99.31a72.37,72.37,0,0,1,12.37,16.88c9.21,16.93,14.5,39.07,15,62.71h33.73A87.81,87.81,0,0,0,282.4,99.31Z"/><path class="cls-1" d="M294.77,249.56a72.23,72.23,0,0,1-12.37,16.89,87.83,87.83,0,0,0,61.14-79.59H309.81C309.27,210.49,304,232.63,294.77,249.56Z"/><path class="cls-1" d="M287.78,120c-7.71-14.16-17.46-22.67-27.8-24.41V178.9h41.87C301.33,156.58,296.38,135.79,287.78,120Z"/><path class="cls-1" d="M301.85,186.86H260v83.31c10.34-1.75,20.09-10.25,27.8-24.41C296.38,230,301.33,209.17,301.85,186.86Z"/></svg>