<svg id="Layer_1" data-name="Layer 1" xmlns="http://www.w3.org/2000/svg" viewBox="0 0 512 512"><defs><style>.cls-1{fill:#c00;}</style></defs><title>icons-collection</title><path class="cls-1" d="M510.85,72.9H58.55V387.44H512Zm-23,289.29H81.51V95.86H486.74l1.15,8Z"/><polygon class="cls-1" points="284.7 248.54 215.82 149.81 109.06 331.19 432.79 331.19 331.77 199.18 284.7 248.54"/><circle class="cls-1" cx="393.76" cy="162.44" r="33.29"/><polygon class="cls-1" points="478.71 400.07 454.6 400.07 454.6 415 24.11 415 24.11 148.66 42.48 148.66 42.48 124.56 24.11 124.56 0 124.56 0 148.66 0 415 0 437.95 0 439.1 478.71 439.1 478.71 415 478.71 415 478.71 400.07"/></svg>