<svg id="Layer_1" data-name="Layer 1" xmlns="http://www.w3.org/2000/svg" viewBox="0 0 512 512"><defs><style>.cls-1{fill:#c00;}</style></defs><title>icons-collection</title><path class="cls-1" d="M501.33,184a47.51,47.51,0,0,0-19.2,22.4,78,78,0,0,1,17.07,14.93,38.46,38.46,0,0,1,12.8-19.2Z"/><path class="cls-1" d="M128,467.73h67.2v-54.4A276.14,276.14,0,0,1,128,382.4Z"/><path class="cls-1" d="M312.53,466.67h67.2V382.4a212.21,212.21,0,0,1-67.2,29.87Z"/><path class="cls-1" d="M453.33,210.67a29.38,29.38,0,0,0-9.6,1.06c-14.93-77.86-92.8-137.6-185.6-137.6a205.37,205.37,0,0,0-73.6,12.8L99.2,44.27V150.93a158.48,158.48,0,0,0-26.67,59.74H0V299.2H83.2c26.67,61.87,94.93,106.67,176,106.67S410.67,360,436.27,294.93a50.2,50.2,0,0,0,18.13,4.27,43.94,43.94,0,0,0,43.73-43.73A45.76,45.76,0,0,0,453.33,210.67ZM149.76,222.4h-.43a17.07,17.07,0,1,1,17.07-17.07A16.85,16.85,0,0,1,149.76,222.4Zm119.78,96.75a24.08,24.08,0,0,1-8.21.32V331.2H250.67V318.4a21.33,21.33,0,0,1-13.87-9.6v9.6H221.87V284.27h16c0,9.6,3.2,20.26,12.8,22.4V275.73l-5.34-2.13c-12.8-5.33-22.4-10.67-22.4-25.6a26.89,26.89,0,0,1,24.82-28.8,26.44,26.44,0,0,1,4,0V207.47H262.4v12.8a20.64,20.64,0,0,1,11.73,8.53v-7.47H288v32H272c-1.07-11.73-4.27-18.13-11.73-20.26v28.8L265.6,264a44.48,44.48,0,0,1,17.07,9.6A25.11,25.11,0,0,1,288,290.67,24,24,0,0,1,269.54,319.15ZM310.4,133.87a140.35,140.35,0,0,0-55.47-10.67,140.26,140.26,0,0,0-55.46,10.67v-22.4a140.26,140.26,0,0,1,55.46-10.67,140.35,140.35,0,0,1,55.47,10.67Zm144,143c-.37,0-.73,0-1.1,0a24.4,24.4,0,0,1-11.73-3.2,176.66,176.66,0,0,0,4.27-34.13v-5.34a15.7,15.7,0,0,1,7.46-1.06,22.5,22.5,0,0,1,22.4,22.4A21.33,21.33,0,0,1,454.43,276.83Z"/><path class="cls-1" d="M261.33,280v26.67a12.81,12.81,0,0,0,9.6-12.8C272,285.33,267.73,282.13,261.33,280Z"/><path class="cls-1" d="M241.07,244.8c0,7.47,4.26,10.67,10.66,12.8V232c-2.13,0-4.26,2.13-6.4,3.2A15.86,15.86,0,0,0,241.07,244.8Z"/></svg>