<svg id="Layer_1" data-name="Layer 1" xmlns="http://www.w3.org/2000/svg" viewBox="0 0 512 512"><defs><style>.cls-1{fill:#c00;}</style></defs><title>icons-collection</title><polygon class="cls-1" points="179.46 512 332.54 512 353.54 282.37 158.46 282.37 179.46 512"/><path class="cls-1" d="M350.72,137.47l-50.18-21.76L280.83,107a55.73,55.73,0,0,1-5.63,2.81,30.13,30.13,0,0,1-6.14,2.31h-.26a58,58,0,0,1-6.4,1.28,43.68,43.68,0,0,1-13.31,0,39.86,39.86,0,0,1-9.47-2.56,63.93,63.93,0,0,1-8.45-4.1l-20.23,9-49.66,21.76v40.71H350.72Z"/><path class="cls-1" d="M275.2,109.57a39.47,39.47,0,0,0,5.63-2.82l19.71,8.71-19.45-9C279,107.52,277.25,108.54,275.2,109.57Z"/><ellipse class="cls-1" cx="256" cy="48.64" rx="40.7" ry="48.64"/><polygon class="cls-1" points="120.32 191.74 133.89 268.8 378.11 268.8 391.68 191.74 120.32 191.74"/></svg>