<svg id="Layer_1" data-name="Layer 1" xmlns="http://www.w3.org/2000/svg" viewBox="0 0 512 512"><defs><style>.cls-1{fill:#c00;}</style></defs><title>icons-collection</title><polygon class="cls-1" points="0 274.29 18.29 274.29 18.29 384 54.86 384 54.86 274.29 91.43 274.29 91.43 384 128 384 128 274.29 164.57 274.29 164.57 384 201.14 384 201.14 274.29 237.71 274.29 237.71 384 274.29 384 274.29 274.29 310.86 274.29 310.86 384 347.43 384 347.43 274.29 384 274.29 384 384 420.57 384 420.57 274.29 457.14 274.29 457.14 384 493.71 384 493.71 274.29 512 274.29 512 256 0 256 0 274.29"/><rect class="cls-1" y="402.29" width="512" height="36.57"/><path class="cls-1" d="M347.43,128H329.14a82.24,82.24,0,0,0-36.57-36.57V73.14H219.43V91.43A81.41,81.41,0,0,0,182.86,128H164.57v18.29H347.43Z"/><polygon class="cls-1" points="365.71 201.14 365.71 164.57 146.29 164.57 146.29 201.14 0 201.14 0 237.71 512 237.71 512 201.14 365.71 201.14"/></svg>