<svg id="Layer_1" data-name="Layer 1" xmlns="http://www.w3.org/2000/svg" viewBox="0 0 512 512"><defs><style>.cls-1{fill:#c00;}</style></defs><title>icons-collection</title><polygon class="cls-1" points="319.49 320.51 285.7 311.3 254.98 332.8 225.28 312.32 190.46 320.51 168.96 289.79 134.14 495.62 192.51 452.61 233.47 512 254.98 386.05 277.5 512 318.46 450.56 376.83 493.57 339.97 287.74 319.49 320.51"/><circle class="cls-1" cx="256" cy="157.7" r="74.75"/><path class="cls-1" d="M413.7,157.7l-21.51-26.63,9.22-32.77L369.66,81.92l-2-35.84L333.82,42,317.44,12.29,283.65,23.55,257,0,229.38,21.5l-32.77-9.21L180.22,44l-35.84,2-4.09,33.79-29.7,16.39,11.27,33.79L98.3,156.67l21.51,26.63-9.22,32.76,31.75,16.39,2,35.84,33.8,4.09,16.38,29.7,33.79-11.26L255,314.37l26.62-21.51,32.77,9.22,16.38-31.74,35.84-2,4.1-33.79,29.69-16.39-11.26-33.79Zm-157.7,87a87,87,0,1,1,87-87A87,87,0,0,1,256,244.74Z"/></svg>