<svg id="Layer_1" data-name="Layer 1" xmlns="http://www.w3.org/2000/svg" viewBox="0 0 512 512"><defs><style>.cls-1{fill:#c00;}</style></defs><title>icons-collection</title><path class="cls-1" d="M143.53,364.74a64.53,64.53,0,0,0-87.4,0C39,381.86,37.83,412.24,35,422.67l23.79-3.47L48.53,463.47,92.8,453.25,89.39,477.1c10.44-2.86,40.82-4.06,57.94-21.16A64.55,64.55,0,0,0,143.53,364.74ZM133.22,407c-12.75,12.75-42.34,14.11-42.34,14.11S91.78,392,105,378.79c5.7-5.72,16.82-11.43,28.23,0S138.93,401.31,133.22,407Z"/><polygon class="cls-1" points="227.33 345.84 166.16 284.68 119.11 308.19 203.81 392.9 227.33 345.84"/><path class="cls-1" d="M500.25,11.75c-45.55-45.57-216,50.88-295.34,126.75l-85.8-27.93L0,273.8l35.73,35.72L95.28,250l55.33,5L260.27,364.66,262,416.72l-59.55,59.55L238.21,512l163.2-119.1L373.5,307.09C449.37,227.84,545.8,57.32,500.25,11.75ZM330,182.05h0a50.54,50.54,0,1,1,71.48,0A50.55,50.55,0,0,1,330,182Z"/></svg>