<svg id="Layer_1" data-name="Layer 1" xmlns="http://www.w3.org/2000/svg" viewBox="0 0 512 512"><defs><style>.cls-1{fill:#c00;}</style></defs><title>icons-collection</title><path class="cls-1" d="M74.6,314.76l29.64-2L46,225.85l-46,93,31.68-2A231.68,231.68,0,0,0,204.39,481.34l9.2-40.88A186.49,186.49,0,0,1,74.6,314.76Z"/><path class="cls-1" d="M314.76,437.4l-2-29.64L225.85,466l93,46-2-31.68A233,233,0,0,0,481.34,306.59l-40.88-9.2A188,188,0,0,1,314.76,437.4Z"/><path class="cls-1" d="M437.4,197.24l-29.64,2L466,286.15l46-93-31.68,2A234.23,234.23,0,0,0,306.59,29.64l-9.2,40.88A191.09,191.09,0,0,1,437.4,197.24Z"/><path class="cls-1" d="M197.24,74.6l2,29.64L286.15,46l-93-46,1,31.68A235,235,0,0,0,29.64,204.39l40.88,9.2A189.64,189.64,0,0,1,197.24,74.6Z"/><path class="cls-1" d="M243.23,399.58h23.5V373c39.86-1,66.43-24.52,66.43-66.42a49.33,49.33,0,0,0-12.27-40.88A105.72,105.72,0,0,0,281,242.2l-13.29-5.11V170.67c17.38,5.11,24.53,20.44,25.55,48h35.77V145.12H294.32v18.39a49.19,49.19,0,0,0-27.59-19.41V113.44h-23.5V141c-40.88,0-66.43,25.55-66.43,65.41,0,35.76,22.48,49.05,52.12,60.29l14.31,6.13v70.52c-22.49-5.11-29.64-28.62-29.64-52.12H176.8v77.67h34.74V347.47A44,44,0,0,0,243.23,371ZM267.75,281a31.38,31.38,0,0,1,23.51,31.68,30.68,30.68,0,0,1-23.51,29.64Zm-48-82.78a29.93,29.93,0,0,1,9.2-21.46,37.78,37.78,0,0,1,14.31-7.16v57.84C230.39,222.35,219.72,214.19,219.72,198.26Z"/></svg>