<svg id="Layer_1" data-name="Layer 1" xmlns="http://www.w3.org/2000/svg" viewBox="0 0 512 512"><defs><style>.cls-1{fill:#c00;}</style></defs><title>icons-collection</title><path class="cls-1" d="M429.59,419.84c-.8-2.54-1.7-5.06-2.71-7.58a99.32,99.32,0,0,0-5-10.46c-.37-.68-.74-1.38-1.13-2.05a93.55,93.55,0,0,0-5.9-9.09c-.39-.5-.78-1-1.17-1.48a91.69,91.69,0,0,0-6.34-7.43c-.31-.33-.62-.68-.95-1a84.78,84.78,0,0,0-7.55-6.75c-.58-.43-1.15-.89-1.72-1.3a74.68,74.68,0,0,0-8.2-5.44,7.68,7.68,0,0,0-.81-.41,67.62,67.62,0,0,0-8.09-3.79l-1.66-.66a61.4,61.4,0,0,0-8.73-2.43c-.57-.13-1.16-.19-1.76-.29a52.83,52.83,0,0,0-8.6-.82h-.59a50.64,50.64,0,0,0-8.34.78l-2.05.39a49,49,0,0,0-8.19,2.41,50.92,50.92,0,0,0-20.7,15.77l-23.95-83.8L285,277C330.49,203.59,395.63,95.15,395.63,76.8c0-28.16-12.8-64-12.8-64L255.63,228,126.87,12.8s-12.8,35.84-12.8,64c0,18.43,66.34,127.2,112.44,200.7l-10,17L192.41,378.2a50.92,50.92,0,0,0-20.71-15.7,49.38,49.38,0,0,0-8.19-2.42l-2-.39a52.89,52.89,0,0,0-8.33-.78h-.57a53.09,53.09,0,0,0-8.63.82c-.59.1-1.16.16-1.76.29a61.71,61.71,0,0,0-8.74,2.48l-1.64.65a66.75,66.75,0,0,0-8.19,3.79,8.18,8.18,0,0,0-.78.41,71.46,71.46,0,0,0-8.23,5.39L112.91,374a83.61,83.61,0,0,0-7.58,6.75c-.33.33-.62.68-.92,1a90.67,90.67,0,0,0-6.21,7.49c-.37.5-.76,1-1.15,1.46a102.25,102.25,0,0,0-5.89,9.09c-.39.66-.74,1.35-1.11,2.05a92.13,92.13,0,0,0-5,10.46,95.57,95.57,0,0,0-7.1,37.56A80.9,80.9,0,0,0,81,470.71c.63,2.17,1.37,4.28,2.19,6.35a62.67,62.67,0,0,0,3.91,8,59.69,59.69,0,0,0,5.84,8.6,48.63,48.63,0,0,0,28.24,17.16c.68.13,1.33.27,2,.37a48.76,48.76,0,0,0,8.35.78h.58a53.07,53.07,0,0,0,8.62-.82l1.76-.31a59.78,59.78,0,0,0,8.71-2.41c.57-.21,1.1-.45,1.65-.68a65.3,65.3,0,0,0,8.2-3.77l.82-.41a79.65,79.65,0,0,0,8.19-5.44c.57-.43,1.14-.86,1.7-1.32a80.72,80.72,0,0,0,7.57-6.75c.33-.31.62-.68.93-1a88.46,88.46,0,0,0,6.37-7.43c.36-.49.77-1,1.16-1.48a99.46,99.46,0,0,0,5.63-9.13c.39-.68.76-1.35,1.13-2.05a101.1,101.1,0,0,0,5-10.44,98.86,98.86,0,0,0,6.14-22.33L242,345.58s5.27-8.19,13.81-21.81c8.66,13.56,14,21.81,14,21.81l36.23,90.64a97.71,97.71,0,0,0,6.15,22.33,99.08,99.08,0,0,0,5,10.44c.36.7.71,1.37,1.12,2.05a94.49,94.49,0,0,0,5.9,9.07c.37.51.76,1,1.15,1.48a89.84,89.84,0,0,0,6.35,7.43c.32.33.61.7.94,1a80.83,80.83,0,0,0,7.57,6.76c.56.45,1.13.88,1.71,1.31a76.1,76.1,0,0,0,8.19,5.45l.8.41a63.16,63.16,0,0,0,8.19,3.77c.55.22,1.1.47,1.66.68a60.57,60.57,0,0,0,8.7,2.41l1.78.31a54,54,0,0,0,8.6.82h.58a50.86,50.86,0,0,0,8.35-.78c.68-.1,1.33-.25,2.05-.37a49.44,49.44,0,0,0,8.19-2.44,51.51,51.51,0,0,0,23.78-19.82,63.44,63.44,0,0,0,6-11.53,66.58,66.58,0,0,0,2.17-6.35,80.61,80.61,0,0,0,3.05-20.77A93.89,93.89,0,0,0,429.59,419.84ZM180.74,451l-.11,0c-9.62,23.9-29.8,40.59-49,40.59a29.72,29.72,0,0,1-11.06-2c-20.78-8.39-28.4-40.18-16.6-69.43,9.64-23.92,29.81-40.61,49.15-40.63a29.29,29.29,0,0,1,11.06,2c9.36,3.77,16.38,12.45,19.92,24.43C188,419.47,186.8,435.86,180.74,451Zm74-156.53a12.8,12.8,0,1,1,12.8-12.8A12.8,12.8,0,0,1,254.77,294.42Zm138,195,0,0a29.52,29.52,0,0,1-11.06,2c-19.25,0-39.43-16.69-49.16-40.61-6.14-15-7.27-31.42-3.33-45.06,3.5-12,10.56-20.66,19.94-24.43a29.19,29.19,0,0,1,11-2.05c19.25,0,39.45,16.71,49.15,40.63C421.15,449.25,413.55,481,392.74,489.43Z"/><rect class="cls-1" x="248.44" y="371.2" width="12.8" height="38.4"/><rect class="cls-1" x="248.44" y="422.4" width="12.8" height="38.4"/><rect class="cls-1" x="248.57" y="473.6" width="12.8" height="38.4"/><rect class="cls-1" x="248.44" y="51.2" width="12.8" height="38.4"/><rect class="cls-1" x="248.44" width="12.8" height="38.4"/><rect class="cls-1" x="248.44" y="102.4" width="12.8" height="38.4"/><rect class="cls-1" x="248.57" y="153.6" width="12.8" height="38.4"/></svg>