<svg id="Layer_1" data-name="Layer 1" xmlns="http://www.w3.org/2000/svg" viewBox="0 0 512 512"><defs><style>.cls-1{fill:#c00;}</style></defs><title>icons-collection</title><path class="cls-1" d="M366.37,0H312.21C256,0,256,66.43,256,66.43h55.19C366.37,66.43,366.37,0,366.37,0Z"/><path class="cls-1" d="M200.61,66.43H256S256,0,200.61,0H145.42S145.42,66.43,200.61,66.43Z"/><path class="cls-1" d="M198,186.81C236.79,147,189.78,100,189.78,100l-38.84,38.83c-38.83,39.86,8.18,86.87,8.18,86.87Z"/><path class="cls-1" d="M120.08,264.69l38.83-38.84c1,0-46-47-85.84-8.17L34.24,256.51S81.25,303.52,120.08,264.69Z"/><path class="cls-1" d="M324.27,161.26s-47,47-6.95,85.85l37.61,38.83s47-47,8.17-85.84Z"/><path class="cls-1" d="M394,325c38.84,38.84,85.85-8.17,85.85-8.17L441,278c-38.83-38.83-85.84,8.18-85.84,8.18Z"/><path class="cls-1" d="M256,421.05C137.45,421.05,37.3,458.86.51,512h511C474.7,458.86,374.55,421.05,256,421.05Z"/><polygon class="cls-1" points="273.37 410.83 273.37 388.34 359.22 303.52 337.76 282.06 273.37 345.42 273.37 76.65 239.65 76.65 239.65 286.15 176.29 222.79 154.83 244.25 239.65 328.05 239.65 410.83 273.37 410.83"/></svg>