<svg id="Layer_1" data-name="Layer 1" xmlns="http://www.w3.org/2000/svg" viewBox="0 0 512 512"><defs><style>.cls-1{fill:#c00;}</style></defs><title>icons-collection</title><rect class="cls-1" x="245.76" y="409.6" width="20.48" height="40.96"/><rect class="cls-1" x="102.4" y="286.72" width="40.96" height="20.48"/><polygon class="cls-1" points="276.48 276.48 276.48 153.6 235.52 153.6 235.52 317.44 409.6 317.44 409.6 276.48 276.48 276.48"/><path class="cls-1" d="M256,81.92c-118.78,0-215,96.26-215,215s96.26,215,215,215,215-96.26,215-215S374.78,81.92,256,81.92ZM256,471A174.08,174.08,0,1,1,430.08,297,173.93,173.93,0,0,1,256,471Z"/><rect class="cls-1" x="225.28" y="51.2" width="61.44" height="20.48"/><rect class="cls-1" x="393.59" y="73.01" width="29.7" height="62.47" transform="translate(75.78 363.14) rotate(-52.21)"/><rect class="cls-1" x="204.8" width="102.4" height="40.96"/></svg>