<svg id="Layer_1" data-name="Layer 1" xmlns="http://www.w3.org/2000/svg" viewBox="0 0 512 512"><defs><style>.cls-1{fill:#c00;}</style></defs><title>icons-collection</title><path class="cls-1" d="M427.35,0H84.65A30.55,30.55,0,0,0,54.37,30.28V481.72A30.55,30.55,0,0,0,84.65,512h342.7a30.54,30.54,0,0,0,30.28-30.28V30.28A30.54,30.54,0,0,0,427.35,0Zm-172,482.41a15.14,15.14,0,1,1,15.14-15.14A15.14,15.14,0,0,1,255.31,482.41Zm168.05-57.67h-335V37.85h335Z"/><rect class="cls-1" x="231.91" y="316.56" width="144.52" height="13.76"/><rect class="cls-1" x="231.91" y="342.71" width="53.68" height="13.76"/><rect class="cls-1" x="141.08" y="306.92" width="64.69" height="64.69"/><rect class="cls-1" x="231.91" y="207.83" width="144.52" height="13.76"/><rect class="cls-1" x="231.91" y="233.98" width="114.24" height="13.76"/><rect class="cls-1" x="141.08" y="198.19" width="64.69" height="64.69"/><rect class="cls-1" x="231.91" y="97.72" width="144.52" height="13.76"/><rect class="cls-1" x="231.91" y="125.25" width="53.68" height="13.76"/><rect class="cls-1" x="141.08" y="88.09" width="64.69" height="64.69"/></svg>