<svg id="Layer_1" data-name="Layer 1" xmlns="http://www.w3.org/2000/svg" viewBox="0 0 512 512"><defs><style>.cls-1{fill:#c00;}</style></defs><title>icons-collection</title><path class="cls-1" d="M287.38,490.81V398.65a109.71,109.71,0,0,1-22.53-21.09A138.53,138.53,0,0,1,225.13,391v99.94L207.92,512H305l-17.41-21.09Z"/><path class="cls-1" d="M511.1,289.71a51.19,51.19,0,0,0-35.53-48.94,77.51,77.51,0,0,0-37.78-133.11,56.83,56.83,0,0,0-90.51-68.19,67.17,67.17,0,0,0-119.49-5.63A94.71,94.71,0,0,0,85.67,156.71a56.91,56.91,0,0,0-39,46.17A56.93,56.93,0,0,0,34.88,310.8v1a41,41,0,0,0,69.43,30.71A134.54,134.54,0,0,0,268.13,366.2a104.86,104.86,0,0,0,166.49,3.68,41.19,41.19,0,0,0,65.63-48A51.19,51.19,0,0,0,511.1,289.71Z"/></svg>