<svg id="Layer_1" data-name="Layer 1" xmlns="http://www.w3.org/2000/svg" viewBox="0 0 512 512"><defs><style>.cls-1{fill:#c00;}</style></defs><title>icons-collection</title><polygon class="cls-1" points="162.53 0.8 156.16 0.8 154.65 139.41 144.04 139.41 135.76 0.8 128.84 0.8 125.36 139.41 114.73 139.41 108.54 0.8 101.62 0.8 96.11 139.41 85.48 139.41 80.75 0.8 74.34 0.8 64.78 157.47 106.15 189.17 99.59 511.98 137.28 511.98 130.7 189.17 172.09 157.47 162.53 0.8"/><path class="cls-1" d="M447.22,98.3c0-57.81-24.16-97.89-62.34-97.89S322.56,40.49,322.56,98.3c0,51.57,17.86,94.46,50.28,103.14L366,512h37.7l-6.78-310.62C429.36,192.78,447.22,149.89,447.22,98.3Z"/><path class="cls-1" d="M272.77,0c-51.36,3.28-54.08,102.69-54.08,102.69V240.17h30.06L242,512h37.7l-6.82-273.9Z"/></svg>